<?xml version="1.0" encoding="UTF-8" standalone="no"?>
<svg
   xmlns:dc="http://purl.org/dc/elements/1.1/"
   xmlns:cc="http://creativecommons.org/ns#"
   xmlns:rdf="http://www.w3.org/1999/02/22-rdf-syntax-ns#"
   xmlns:svg="http://www.w3.org/2000/svg"
   xmlns="http://www.w3.org/2000/svg"
   viewBox="0 0 1122.52 302.36267"
   height="302.36267"
   width="1122.52"
   xml:space="preserve"
   id="svg2"
   version="1.1"><metadata
     id="metadata8"><rdf:RDF><cc:Work
         rdf:about=""><dc:format>image/svg+xml</dc:format><dc:type
           rdf:resource="http://purl.org/dc/dcmitype/StillImage" /></cc:Work></rdf:RDF></metadata><defs
     id="defs6"><clipPath
       id="clipPath30"
       clipPathUnits="userSpaceOnUse"><path
         id="path28"
         d="M 0,0 H 841.89 V 226.772 H 0 Z" /></clipPath></defs><g
     transform="matrix(1.3333333,0,0,-1.3333333,0,302.36267)"
     id="g10"><g
       transform="translate(674.8416,125.8542)"
       id="g12"><path
         id="path14"
         style="fill:#58a3de;fill-opacity:1;fill-rule:nonzero;stroke:none"
         d="M 0,0 0.655,39.521 -50.887,-12.026 0,-62.917 v 38.079 H 79.129 V -63.945 L 131.048,-12.026 79.911,39.112 79.129,0 Z" /></g><g
       transform="translate(688.326,91.4365)"
       id="g16"><path
         id="path18"
         style="fill:#58a3de;fill-opacity:1;fill-rule:nonzero;stroke:none"
         d="m 0,0 v -41.982 l 26.595,-26.6 25.566,25.571 V 0 Z" /></g><g
       transform="translate(741.4518,135.3396)"
       id="g20"><path
         id="path22"
         style="fill:#58a3de;fill-opacity:1;fill-rule:nonzero;stroke:none"
         d="M 0,0 V 41.982 L -26.595,68.577 -52.161,43.01 V 0 Z" /></g><g
       id="g24"><g
         clip-path="url(#clipPath30)"
         id="g26"><g
           transform="translate(36,65.3603)"
           id="g32"><path
             id="path34"
             style="fill:#58a3de;fill-opacity:1;fill-rule:nonzero;stroke:none"
             d="m 0,0 h 9.192 v 42.773 h 6.566 c 11.422,0 19.219,0.5 23.388,1.501 5.711,1.375 10.193,4.053 13.444,8.035 3.252,3.981 4.878,9.036 4.878,15.164 0,6.087 -1.668,11.141 -5.003,15.165 -3.335,4.022 -7.629,6.68 -12.881,7.973 -3.669,0.916 -10.756,1.375 -21.262,1.375 H 0 Z m 25.451,82.982 c 6.211,0 10.682,-0.542 13.413,-1.623 2.73,-1.082 4.93,-2.902 6.598,-5.461 1.667,-2.559 2.501,-5.378 2.501,-8.456 0,-3.163 -0.834,-6.024 -2.501,-8.582 C 43.794,56.301 41.501,54.45 38.583,53.306 35.664,52.162 31.058,51.59 24.763,51.59 L 9.192,51.778 V 82.982 Z M 71.1,0 h 8.943 v 23.012 c 0,11.798 0.541,19.636 1.625,23.513 1.417,5.043 3.481,8.764 6.191,11.162 2.71,2.397 5.524,3.596 8.442,3.596 1.251,0 2.793,-0.397 4.628,-1.189 l 4.565,7.379 c -2.752,1.542 -5.337,2.314 -7.754,2.314 -3.211,0 -6.296,-0.969 -9.255,-2.908 -2.961,-1.938 -5.775,-4.867 -8.442,-8.786 v 9.943 H 71.1 Z m 39.824,93.925 c -1.411,-1.418 -2.116,-3.127 -2.116,-5.128 0,-1.96 0.705,-3.648 2.116,-5.065 1.411,-1.418 3.093,-2.126 5.044,-2.126 1.992,0 3.694,0.708 5.105,2.126 1.411,1.417 2.118,3.105 2.118,5.065 0,2.001 -0.707,3.71 -2.118,5.128 -1.411,1.417 -3.113,2.126 -5.105,2.126 -1.951,0 -3.633,-0.709 -5.044,-2.126 M 111.622,0 h 8.755 v 68.036 h -8.755 z m 26.889,0 h 8.755 v 28.828 c 0,8.504 0.844,14.82 2.532,18.947 1.689,4.128 4.294,7.411 7.817,9.849 3.522,2.439 7.306,3.659 11.35,3.659 3.502,0 6.524,-0.887 9.067,-2.658 2.543,-1.772 4.325,-4.127 5.347,-7.066 1.021,-2.939 1.532,-8.516 1.532,-16.728 V 0 h 8.755 v 26.639 c 0,9.755 0.81,16.717 2.43,20.886 1.62,4.169 4.185,7.504 7.697,10.006 3.512,2.501 7.386,3.752 11.624,3.752 3.49,0 6.492,-0.835 9.006,-2.502 2.514,-1.668 4.291,-3.867 5.329,-6.597 1.039,-2.731 1.559,-7.744 1.559,-15.039 V 0 h 8.942 v 37.145 c 0,8.504 -0.874,14.883 -2.621,19.135 -1.747,4.252 -4.418,7.566 -8.016,9.943 -3.597,2.376 -7.746,3.564 -12.446,3.564 -5.032,0 -9.731,-1.386 -14.099,-4.158 -4.368,-2.773 -8.006,-6.827 -10.917,-12.163 -1.378,4.002 -3.006,7.076 -4.883,9.224 -1.878,2.146 -4.3,3.866 -7.263,5.159 -2.964,1.291 -6.093,1.938 -9.39,1.938 -4.883,0 -9.537,-1.335 -13.961,-4.002 -3.215,-2.001 -6.345,-5.17 -9.391,-9.505 v 11.756 h -8.755 z m 170.018,12.919 c -2.296,-1.993 -5.081,-3.593 -8.358,-4.797 -3.277,-1.204 -6.647,-1.806 -10.11,-1.806 -7.18,0 -13.212,2.527 -18.095,7.58 -4.883,5.054 -7.409,11.532 -7.575,19.434 h 61.22 c -0.084,9.296 -2.588,17.05 -7.511,23.263 -6.927,8.795 -16.189,13.194 -27.789,13.194 -11.267,0 -20.259,-4.294 -26.977,-12.882 -5.299,-6.753 -7.948,-14.445 -7.948,-23.074 0,-9.172 3.129,-17.395 9.389,-24.67 6.259,-7.275 14.937,-10.912 26.037,-10.912 5.007,0 9.492,0.761 13.457,2.283 3.964,1.521 7.532,3.741 10.703,6.659 3.172,2.918 5.967,6.754 8.388,11.506 l -7.379,3.878 c -2.672,-4.444 -5.155,-7.663 -7.452,-9.656 m -43.263,27.978 c 1.794,6.253 4.445,10.943 7.952,14.07 4.799,4.293 10.538,6.441 17.218,6.441 4.048,0 7.908,-0.855 11.582,-2.564 3.673,-1.71 6.626,-3.961 8.859,-6.754 2.234,-2.793 3.935,-6.525 5.104,-11.193 z M 343.308,0 h 9.192 v 42.773 h 6.566 c 11.422,0 19.218,0.5 23.388,1.501 5.711,1.375 10.192,4.053 13.444,8.035 3.252,3.981 4.878,9.036 4.878,15.164 0,6.087 -1.668,11.141 -5.003,15.165 -3.336,4.022 -7.629,6.68 -12.882,7.973 -3.669,0.916 -10.755,1.375 -21.261,1.375 h -18.322 z m 25.451,82.982 c 6.211,0 10.682,-0.542 13.413,-1.623 2.73,-1.082 4.929,-2.902 6.597,-5.461 1.667,-2.559 2.502,-5.378 2.502,-8.456 0,-3.163 -0.835,-6.024 -2.502,-8.582 -1.668,-2.559 -3.961,-4.41 -6.878,-5.554 -2.919,-1.144 -7.526,-1.716 -13.82,-1.716 L 352.5,51.778 v 31.204 z m 55.046,-24.638 c -6.265,-6.921 -9.397,-15.092 -9.397,-24.513 0,-9.506 3.309,-17.813 9.929,-24.92 6.619,-7.108 15.149,-10.662 25.59,-10.662 10.398,0 18.907,3.554 25.527,10.662 6.619,7.107 9.929,15.414 9.929,24.92 0,9.463 -3.132,17.654 -9.396,24.575 -6.892,7.587 -15.578,11.381 -26.06,11.381 -10.524,0 -19.232,-3.814 -26.122,-11.443 m 44.822,-5.191 c 5.251,-5.378 7.877,-11.881 7.877,-19.51 0,-4.92 -1.193,-9.505 -3.578,-13.757 -2.385,-4.253 -5.606,-7.536 -9.664,-9.849 -4.059,-2.314 -8.514,-3.471 -13.366,-3.471 -4.854,0 -9.309,1.157 -13.367,3.471 -4.059,2.313 -7.28,5.596 -9.664,9.849 -2.385,4.252 -3.577,8.837 -3.577,13.757 0,7.629 2.614,14.132 7.844,19.51 5.229,5.378 11.484,8.067 18.764,8.067 7.237,0 13.48,-2.689 18.731,-8.067 M 498.265,0 h 8.942 v 23.012 c 0,11.798 0.542,19.636 1.626,23.513 1.417,5.043 3.481,8.764 6.191,11.162 2.71,2.397 5.523,3.596 8.442,3.596 1.251,0 2.793,-0.397 4.628,-1.189 l 4.564,7.379 c -2.751,1.542 -5.336,2.314 -7.754,2.314 -3.21,0 -6.295,-0.969 -9.255,-2.908 -2.96,-1.938 -5.774,-4.867 -8.442,-8.786 v 9.943 h -8.942 z m 49.464,68.036 H 535.785 V 60.47 h 11.944 V 0 h 8.755 v 60.47 h 13.882 v 7.566 H 556.484 V 93.3 h -8.755 z" /></g></g></g></g></svg>