<?xml version="1.0" encoding="UTF-8"?>
<svg width="32px" height="32px" viewBox="0 0 32 32" version="1.1" xmlns="http://www.w3.org/2000/svg" xmlns:xlink="http://www.w3.org/1999/xlink">
    <!-- Generator: Sketch 61 (89581) - https://sketch.com -->
    <title>SVG_Logo</title>
    <desc>Created with Sketch.</desc>
    <g id="SVG_Logo" stroke="none" stroke-width="1" fill="none" fill-rule="evenodd">
        <g id="elem/brand/DB_4c" transform="translate(0.500000, 5.000000)">
            <g>
                <path d="M27.8389789,0.08371 L3.20300702,0.08371 C1.50779649,0.08371 0.104529825,1.43935 0.104529825,3.19154 L0.104529825,18.76941 C0.104529825,20.52149 1.50779649,21.91046 3.20300702,21.91046 L27.8389789,21.91046 C29.5342982,21.91046 30.9375649,20.52149 30.9375649,18.76941 L30.9375649,3.19154 C30.9375649,1.43935 29.5342982,0.08371 27.8389789,0.08371" id="Fill-1" fill="#F01414"></path>
                <path d="M28.6866386,18.76941 C28.6866386,19.26573 28.3276912,19.66316 27.8389789,19.66316 L3.20300702,19.66316 C2.71440351,19.66316 2.35545614,19.26573 2.35545614,18.76941 L2.35545614,3.19154 C2.35545614,2.69522 2.71440351,2.29878 3.20300702,2.29878 L27.8389789,2.29878 C28.3276912,2.29878 28.6866386,2.69522 28.6866386,3.19154 L28.6866386,18.76941" id="Fill-2" fill="#FFFFFE"></path>
                <path d="M9.53385965,18.14098 L4.34598246,18.14098 L4.34598246,3.85319 L9.53385965,3.85319 C13.1879439,3.85319 15.206207,6.16836 15.206207,10.93048 C15.206207,15.06538 13.8401404,18.10765 9.53385965,18.14098 Z M11.7857649,11.22803 C11.7857649,8.3501 11.4904491,6.1028 8.42492982,6.1028 L7.73879649,6.1028 L7.73879649,15.82482 L8.94540351,15.82482 C10.7405754,15.82482 11.7857649,14.37029 11.7857649,11.22803 L11.7857649,11.22803 Z" id="Fill-3" fill="#F01414"></path>
                <path d="M24.1674912,10.66626 C25.1678667,10.39852 26.6378105,9.24407 26.6378105,7.33986 C26.6378105,7.04231 26.5762456,3.85847 22.6041123,3.85847 L16.692793,3.85847 L16.692793,18.14098 L21.6870561,18.14098 C23.0098316,18.14098 27.1318526,18.14098 27.1318526,14.124 C27.1318526,13.12036 26.7272211,11.23166 24.1674912,10.66626 Z M20.0525404,6.06221 L21.1217684,6.06221 C22.640986,6.06221 23.2443439,6.59846 23.2443439,7.78096 C23.2443439,8.72058 22.5799649,9.50917 21.3989193,9.50917 L20.0525404,9.50917 L20.0525404,6.06221 Z M21.4427544,15.82482 L20.0525404,15.82482 L20.0525404,12.15346 L21.5351018,12.15346 C23.2978596,12.15346 23.7280526,13.19362 23.7280526,13.98936 C23.7280526,15.82482 21.9808491,15.82482 21.4427544,15.82482 L21.4427544,15.82482 Z" id="Fill-4" fill="#F01414"></path>
            </g>
        </g>
    </g>
</svg>